<svg width="60" height="44" viewBox="0 0 60 44" fill="none" xmlns="http://www.w3.org/2000/svg">
<path d="M2.436 39V29.62L2.884 30.096H0.126V29.2H3.444V39H2.436ZM14.6167 39.084C13.87 39.084 13.1793 38.9627 12.5447 38.72C11.9193 38.468 11.3733 38.118 10.9067 37.67C10.4493 37.222 10.09 36.6947 9.82866 36.088C9.57666 35.4813 9.45066 34.8187 9.45066 34.1C9.45066 33.3813 9.57666 32.7187 9.82866 32.112C10.09 31.5053 10.454 30.978 10.9207 30.53C11.3873 30.082 11.9333 29.7367 12.5587 29.494C13.1933 29.242 13.884 29.116 14.6307 29.116C15.3773 29.116 16.0587 29.2327 16.6747 29.466C17.3 29.6993 17.832 30.054 18.2707 30.53L17.6267 31.188C17.216 30.7773 16.7633 30.4833 16.2687 30.306C15.774 30.1287 15.242 30.04 14.6727 30.04C14.066 30.04 13.506 30.1427 12.9927 30.348C12.4887 30.544 12.0453 30.8287 11.6627 31.202C11.2893 31.566 10.9953 31.9953 10.7807 32.49C10.5753 32.9753 10.4727 33.512 10.4727 34.1C10.4727 34.6787 10.5753 35.2153 10.7807 35.71C10.9953 36.2047 11.2893 36.6387 11.6627 37.012C12.0453 37.376 12.4887 37.6607 12.9927 37.866C13.506 38.062 14.0613 38.16 14.6587 38.16C15.2187 38.16 15.746 38.076 16.2407 37.908C16.7447 37.74 17.2067 37.4553 17.6267 37.054L18.2147 37.838C17.748 38.2487 17.202 38.5613 16.5767 38.776C15.9513 38.9813 15.298 39.084 14.6167 39.084ZM17.2207 37.712V34.1H18.2147V37.838L17.2207 37.712ZM25.5428 39V37.376L25.5008 37.11V34.394C25.5008 33.7687 25.3234 33.288 24.9688 32.952C24.6234 32.616 24.1054 32.448 23.4148 32.448C22.9388 32.448 22.4861 32.5273 22.0568 32.686C21.6274 32.8447 21.2634 33.0547 20.9648 33.316L20.5168 32.574C20.8901 32.2567 21.3381 32.014 21.8608 31.846C22.3834 31.6687 22.9341 31.58 23.5128 31.58C24.4648 31.58 25.1974 31.818 25.7108 32.294C26.2334 32.7607 26.4948 33.4747 26.4948 34.436V39H25.5428ZM23.0088 39.07C22.4581 39.07 21.9774 38.9813 21.5668 38.804C21.1654 38.6173 20.8574 38.3653 20.6428 38.048C20.4281 37.7213 20.3208 37.348 20.3208 36.928C20.3208 36.5453 20.4094 36.2 20.5868 35.892C20.7734 35.5747 21.0721 35.3227 21.4828 35.136C21.9028 34.94 22.4628 34.842 23.1628 34.842H25.6968V35.584H23.1908C22.4814 35.584 21.9868 35.71 21.7068 35.962C21.4361 36.214 21.3008 36.5267 21.3008 36.9C21.3008 37.32 21.4641 37.656 21.7908 37.908C22.1174 38.16 22.5748 38.286 23.1628 38.286C23.7228 38.286 24.2034 38.16 24.6048 37.908C25.0154 37.6467 25.3141 37.2733 25.5008 36.788L25.7248 37.474C25.5381 37.9593 25.2114 38.3467 24.7448 38.636C24.2874 38.9253 23.7088 39.07 23.0088 39.07ZM29.1946 39V31.65H30.1466V33.652L30.0486 33.302C30.2539 32.742 30.5993 32.3173 31.0846 32.028C31.5699 31.7293 32.1719 31.58 32.8906 31.58V32.546C32.8533 32.546 32.8159 32.546 32.7786 32.546C32.7413 32.5367 32.7039 32.532 32.6666 32.532C31.8919 32.532 31.2853 32.77 30.8466 33.246C30.4079 33.7127 30.1886 34.38 30.1886 35.248V39H29.1946ZM38.7635 39V37.376L38.7215 37.11V34.394C38.7215 33.7687 38.5442 33.288 38.1895 32.952C37.8442 32.616 37.3262 32.448 36.6355 32.448C36.1595 32.448 35.7068 32.5273 35.2775 32.686C34.8482 32.8447 34.4842 33.0547 34.1855 33.316L33.7375 32.574C34.1108 32.2567 34.5588 32.014 35.0815 31.846C35.6042 31.6687 36.1548 31.58 36.7335 31.58C37.6855 31.58 38.4182 31.818 38.9315 32.294C39.4542 32.7607 39.7155 33.4747 39.7155 34.436V39H38.7635ZM36.2295 39.07C35.6788 39.07 35.1982 38.9813 34.7875 38.804C34.3862 38.6173 34.0782 38.3653 33.8635 38.048C33.6488 37.7213 33.5415 37.348 33.5415 36.928C33.5415 36.5453 33.6302 36.2 33.8075 35.892C33.9942 35.5747 34.2928 35.3227 34.7035 35.136C35.1235 34.94 35.6835 34.842 36.3835 34.842H38.9175V35.584H36.4115C35.7022 35.584 35.2075 35.71 34.9275 35.962C34.6568 36.214 34.5215 36.5267 34.5215 36.9C34.5215 37.32 34.6848 37.656 35.0115 37.908C35.3382 38.16 35.7955 38.286 36.3835 38.286C36.9435 38.286 37.4242 38.16 37.8255 37.908C38.2362 37.6467 38.5348 37.2733 38.7215 36.788L38.9455 37.474C38.7588 37.9593 38.4322 38.3467 37.9655 38.636C37.5082 38.9253 36.9295 39.07 36.2295 39.07ZM45.5513 41.786C44.8793 41.786 44.2353 41.688 43.6193 41.492C43.0033 41.296 42.504 41.016 42.1213 40.652L42.6253 39.896C42.9706 40.204 43.3953 40.4467 43.8993 40.624C44.4126 40.8107 44.954 40.904 45.5233 40.904C46.4566 40.904 47.1426 40.6847 47.5813 40.246C48.02 39.8167 48.2393 39.1447 48.2393 38.23V36.396L48.3793 35.136L48.2813 33.876V31.65H49.2333V38.104C49.2333 39.3733 48.9206 40.302 48.2953 40.89C47.6793 41.4873 46.7646 41.786 45.5513 41.786ZM45.3693 38.72C44.6693 38.72 44.0393 38.5707 43.4793 38.272C42.9193 37.964 42.476 37.5393 42.1493 36.998C41.832 36.4567 41.6733 35.836 41.6733 35.136C41.6733 34.436 41.832 33.82 42.1493 33.288C42.476 32.7467 42.9193 32.3267 43.4793 32.028C44.0393 31.7293 44.6693 31.58 45.3693 31.58C46.0226 31.58 46.6106 31.7153 47.1333 31.986C47.656 32.2567 48.0713 32.658 48.3793 33.19C48.6873 33.722 48.8413 34.3707 48.8413 35.136C48.8413 35.9013 48.6873 36.55 48.3793 37.082C48.0713 37.614 47.656 38.02 47.1333 38.3C46.6106 38.58 46.0226 38.72 45.3693 38.72ZM45.4673 37.838C46.0086 37.838 46.4893 37.726 46.9093 37.502C47.3293 37.2687 47.6606 36.9513 47.9033 36.55C48.146 36.1393 48.2673 35.668 48.2673 35.136C48.2673 34.604 48.146 34.1373 47.9033 33.736C47.6606 33.3347 47.3293 33.022 46.9093 32.798C46.4893 32.5647 46.0086 32.448 45.4673 32.448C44.9353 32.448 44.4546 32.5647 44.0253 32.798C43.6053 33.022 43.274 33.3347 43.0313 33.736C42.798 34.1373 42.6813 34.604 42.6813 35.136C42.6813 35.668 42.798 36.1393 43.0313 36.55C43.274 36.9513 43.6053 37.2687 44.0253 37.502C44.4546 37.726 44.9353 37.838 45.4673 37.838ZM55.1213 39.07C54.3559 39.07 53.6839 38.9113 53.1053 38.594C52.5266 38.2673 52.0739 37.824 51.7473 37.264C51.4206 36.6947 51.2573 36.046 51.2573 35.318C51.2573 34.59 51.4113 33.946 51.7193 33.386C52.0366 32.826 52.4659 32.3873 53.0073 32.07C53.5579 31.7433 54.1739 31.58 54.8553 31.58C55.5459 31.58 56.1573 31.7387 56.6893 32.056C57.2306 32.364 57.6553 32.8027 57.9633 33.372C58.2713 33.932 58.4253 34.5807 58.4253 35.318C58.4253 35.3647 58.4206 35.416 58.4113 35.472C58.4113 35.5187 58.4113 35.57 58.4113 35.626H52.0133V34.884H57.8793L57.4873 35.178C57.4873 34.646 57.3706 34.1747 57.1373 33.764C56.9133 33.344 56.6053 33.0173 56.2133 32.784C55.8213 32.5507 55.3686 32.434 54.8553 32.434C54.3513 32.434 53.8986 32.5507 53.4973 32.784C53.0959 33.0173 52.7833 33.344 52.5593 33.764C52.3353 34.184 52.2233 34.6647 52.2233 35.206V35.36C52.2233 35.92 52.3446 36.4147 52.5873 36.844C52.8393 37.264 53.1846 37.5953 53.6233 37.838C54.0713 38.0713 54.5799 38.188 55.1493 38.188C55.5973 38.188 56.0126 38.1087 56.3953 37.95C56.7873 37.7913 57.1233 37.5487 57.4033 37.222L57.9633 37.866C57.6366 38.258 57.2259 38.5567 56.7313 38.762C56.2459 38.9673 55.7093 39.07 55.1213 39.07Z" fill="#696969"/>
<path d="M39.2733 7.61233L38.8592 7.17386L37.4058 3.25613C37.1581 2.59438 36.5248 2.15592 35.8184 2.15186H25.4374C24.731 2.15186 24.0976 2.59438 23.85 3.25613L22.4169 7.12515L21.8201 7.67728C21.3004 8.1198 21 8.76938 21 9.45143V15.1595C21.0041 16.0933 21.7632 16.8484 22.697 16.8484H23.7688C24.7026 16.8484 25.4618 16.0933 25.4658 15.1595V14.3313H35.5342V15.1595C35.5382 16.0933 36.2974 16.8484 37.2312 16.8484H38.303C39.2368 16.8484 39.9959 16.0933 40 15.1595V9.30121C39.9959 8.66382 39.7361 8.05485 39.2733 7.61233ZM24.6132 3.5322C24.7432 3.18711 25.072 2.96382 25.4374 2.96382H35.8224C36.1878 2.96382 36.5167 3.19117 36.6466 3.5322L37.9132 6.94245H36.9673C36.744 5.42002 35.3271 4.36852 33.8047 4.59587C32.5908 4.7745 31.6368 5.72856 31.4581 6.94245H23.3466L24.6132 3.5322ZM36.1391 6.94245H32.2782C32.5015 5.87472 33.5489 5.19267 34.6167 5.41596C35.3799 5.57835 35.9767 6.17515 36.1391 6.94245ZM24.6538 15.1595C24.6498 15.6467 24.256 16.0365 23.7688 16.0365H22.697C22.2098 16.0365 21.816 15.6467 21.812 15.1595V14.0959C22.0556 14.2542 22.3763 14.3313 22.697 14.3313H24.6538V15.1595ZM39.188 15.1595C39.184 15.6467 38.7902 16.0365 38.303 16.0365H37.2312C36.744 16.0365 36.3502 15.6427 36.3462 15.1595V14.3313H38.303C38.6237 14.3313 38.9444 14.2542 39.188 14.0959V15.1595ZM38.303 13.5194H22.697C22.2139 13.5234 21.816 13.1378 21.812 12.6506V9.45143C21.812 9.00485 22.0109 8.57856 22.3519 8.29032C22.356 8.28626 22.3641 8.27814 22.3682 8.27408L22.9203 7.75442H38.2949L38.6846 8.17258C38.6887 8.1807 38.7009 8.18476 38.7049 8.19288C39.0094 8.48113 39.184 8.88305 39.184 9.30121V12.6506H39.188C39.184 13.1337 38.7861 13.5234 38.303 13.5194Z" fill="#696969"/>
<path d="M26.3589 9.37842H23.3141C23.0908 9.37842 22.9081 9.56111 22.9081 9.7844V11.8955C22.9081 12.1188 23.0908 12.3015 23.3141 12.3015H26.3589C26.5822 12.3015 26.7649 12.1188 26.7649 11.8955V9.7844C26.7649 9.56111 26.5822 9.37842 26.3589 9.37842ZM25.953 11.4895H23.72V10.1904H25.953V11.4895Z" fill="#696969"/>
<path d="M37.686 9.37842H34.6411C34.4178 9.37842 34.2351 9.56111 34.2351 9.7844V11.8955C34.2351 12.1188 34.4178 12.3015 34.6411 12.3015H37.686C37.9093 12.3015 38.0919 12.1188 38.0919 11.8955V9.7844C38.0919 9.56111 37.9093 9.37842 37.686 9.37842ZM37.28 11.4895H35.0471V10.1904H37.28V11.4895Z" fill="#696969"/>
<path d="M32.461 11.0835H28.5392C28.3159 11.0835 28.1332 11.2662 28.1332 11.4895C28.1332 11.7128 28.3159 11.8955 28.5392 11.8955H32.461C32.6842 11.8955 32.8669 11.7128 32.8669 11.4895C32.8669 11.2662 32.6842 11.0835 32.461 11.0835Z" fill="#696969"/>
<path d="M32.461 9.82471H28.5392C28.3159 9.82471 28.1332 10.0074 28.1332 10.2307C28.1332 10.454 28.3159 10.6367 28.5392 10.6367H32.461C32.6842 10.6367 32.8669 10.454 32.8669 10.2307C32.8669 10.0074 32.6842 9.82471 32.461 9.82471Z" fill="#696969"/>
</svg>
