<svg width="72" height="44" viewBox="0 0 72 44" fill="none" xmlns="http://www.w3.org/2000/svg">
<path d="M3.444 29.2V39H2.436V30.096H0.126V29.2H3.444ZM12.4786 38.104V39H5.60459V38.286L9.67859 34.296C10.1919 33.792 10.5373 33.358 10.7146 32.994C10.9013 32.6207 10.9946 32.2473 10.9946 31.874C10.9946 31.2953 10.7939 30.8473 10.3926 30.53C10.0006 30.2033 9.43593 30.04 8.69859 30.04C7.55059 30.04 6.65926 30.404 6.02459 31.132L5.31059 30.516C5.69326 30.068 6.17859 29.7227 6.76659 29.48C7.36393 29.2373 8.03593 29.116 8.78259 29.116C9.78126 29.116 10.5699 29.354 11.1486 29.83C11.7366 30.2967 12.0306 30.9407 12.0306 31.762C12.0306 32.266 11.9186 32.7513 11.6946 33.218C11.4706 33.6847 11.0459 34.2213 10.4206 34.828L7.08859 38.104H12.4786ZM17.5949 39.084C16.8389 39.084 16.1623 38.8833 15.5649 38.482C14.9769 38.0807 14.5149 37.5067 14.1789 36.76C13.8523 36.004 13.6889 35.1173 13.6889 34.1C13.6889 33.0827 13.8523 32.2007 14.1789 31.454C14.5149 30.698 14.9769 30.1193 15.5649 29.718C16.1623 29.3167 16.8389 29.116 17.5949 29.116C18.3509 29.116 19.0229 29.3167 19.6109 29.718C20.2083 30.1193 20.6749 30.698 21.0109 31.454C21.3469 32.2007 21.5149 33.0827 21.5149 34.1C21.5149 35.1173 21.3469 36.004 21.0109 36.76C20.6749 37.5067 20.2083 38.0807 19.6109 38.482C19.0229 38.8833 18.3509 39.084 17.5949 39.084ZM17.5949 38.16C18.1643 38.16 18.6636 38.0013 19.0929 37.684C19.5316 37.3667 19.8723 36.9047 20.1149 36.298C20.3576 35.6913 20.4789 34.9587 20.4789 34.1C20.4789 33.2413 20.3576 32.5087 20.1149 31.902C19.8723 31.2953 19.5316 30.8333 19.0929 30.516C18.6636 30.1987 18.1643 30.04 17.5949 30.04C17.0256 30.04 16.5216 30.1987 16.0829 30.516C15.6536 30.8333 15.3176 31.2953 15.0749 31.902C14.8323 32.5087 14.7109 33.2413 14.7109 34.1C14.7109 34.9587 14.8323 35.6913 15.0749 36.298C15.3176 36.9047 15.6536 37.3667 16.0829 37.684C16.5216 38.0013 17.0256 38.16 17.5949 38.16ZM26.8645 39.084C26.1085 39.084 25.4318 38.8833 24.8345 38.482C24.2465 38.0807 23.7845 37.5067 23.4485 36.76C23.1218 36.004 22.9585 35.1173 22.9585 34.1C22.9585 33.0827 23.1218 32.2007 23.4485 31.454C23.7845 30.698 24.2465 30.1193 24.8345 29.718C25.4318 29.3167 26.1085 29.116 26.8645 29.116C27.6205 29.116 28.2925 29.3167 28.8805 29.718C29.4778 30.1193 29.9445 30.698 30.2805 31.454C30.6165 32.2007 30.7845 33.0827 30.7845 34.1C30.7845 35.1173 30.6165 36.004 30.2805 36.76C29.9445 37.5067 29.4778 38.0807 28.8805 38.482C28.2925 38.8833 27.6205 39.084 26.8645 39.084ZM26.8645 38.16C27.4338 38.16 27.9331 38.0013 28.3625 37.684C28.8011 37.3667 29.1418 36.9047 29.3845 36.298C29.6271 35.6913 29.7485 34.9587 29.7485 34.1C29.7485 33.2413 29.6271 32.5087 29.3845 31.902C29.1418 31.2953 28.8011 30.8333 28.3625 30.516C27.9331 30.1987 27.4338 30.04 26.8645 30.04C26.2951 30.04 25.7911 30.1987 25.3525 30.516C24.9231 30.8333 24.5871 31.2953 24.3445 31.902C24.1018 32.5087 23.9805 33.2413 23.9805 34.1C23.9805 34.9587 24.1018 35.6913 24.3445 36.298C24.5871 36.9047 24.9231 37.3667 25.3525 37.684C25.7911 38.0013 26.2951 38.16 26.8645 38.16ZM39.4621 39.084C38.7341 39.084 38.0341 38.9673 37.3621 38.734C36.6994 38.5007 36.1861 38.1927 35.8221 37.81L36.2281 37.012C36.5827 37.3667 37.0541 37.656 37.6421 37.88C38.2301 38.0947 38.8367 38.202 39.4621 38.202C40.3394 38.202 40.9974 38.0433 41.4361 37.726C41.8747 37.3993 42.0941 36.9793 42.0941 36.466C42.0941 36.074 41.9727 35.7613 41.7301 35.528C41.4967 35.2947 41.2074 35.1173 40.8621 34.996C40.5167 34.8653 40.0361 34.7253 39.4201 34.576C38.6827 34.3893 38.0947 34.212 37.6561 34.044C37.2174 33.8667 36.8394 33.6007 36.5221 33.246C36.2141 32.8913 36.0601 32.4107 36.0601 31.804C36.0601 31.3093 36.1907 30.8613 36.4521 30.46C36.7134 30.0493 37.1147 29.7227 37.6561 29.48C38.1974 29.2373 38.8694 29.116 39.6721 29.116C40.2321 29.116 40.7781 29.1953 41.3101 29.354C41.8514 29.5033 42.3181 29.7133 42.7101 29.984L42.3601 30.81C41.9494 30.5393 41.5107 30.3387 41.0441 30.208C40.5774 30.068 40.1201 29.998 39.6721 29.998C38.8134 29.998 38.1647 30.166 37.7261 30.502C37.2967 30.8287 37.0821 31.2533 37.0821 31.776C37.0821 32.168 37.1987 32.4853 37.4321 32.728C37.6747 32.9613 37.9734 33.1433 38.3281 33.274C38.6921 33.3953 39.1774 33.5307 39.7841 33.68C40.5027 33.8573 41.0814 34.0347 41.5201 34.212C41.9681 34.38 42.3461 34.6413 42.6541 34.996C42.9621 35.3413 43.1161 35.8127 43.1161 36.41C43.1161 36.9047 42.9807 37.3573 42.7101 37.768C42.4487 38.1693 42.0427 38.4913 41.4921 38.734C40.9414 38.9673 40.2647 39.084 39.4621 39.084ZM51.8833 31.636V41.716H50.8893V37.614C50.5813 38.09 50.1847 38.454 49.6993 38.706C49.2233 38.9487 48.6867 39.07 48.0893 39.07C47.3893 39.07 46.7593 38.916 46.1993 38.608C45.6487 38.2907 45.2147 37.8473 44.8973 37.278C44.58 36.7087 44.4213 36.0553 44.4213 35.318C44.4213 34.59 44.58 33.9413 44.8973 33.372C45.2147 32.8027 45.6533 32.364 46.2133 32.056C46.7733 31.7387 47.3987 31.58 48.0893 31.58C48.7053 31.58 49.256 31.7107 49.7413 31.972C50.236 32.2333 50.6327 32.6067 50.9313 33.092V31.636H51.8833ZM48.1733 38.188C48.6867 38.188 49.1487 38.0713 49.5593 37.838C49.9793 37.5953 50.306 37.2547 50.5393 36.816C50.782 36.3773 50.9033 35.878 50.9033 35.318C50.9033 34.758 50.782 34.2633 50.5393 33.834C50.306 33.3953 49.9793 33.0547 49.5593 32.812C49.1487 32.5693 48.6867 32.448 48.1733 32.448C47.6507 32.448 47.1793 32.5693 46.7593 32.812C46.3487 33.0547 46.022 33.3953 45.7793 33.834C45.546 34.2633 45.4293 34.758 45.4293 35.318C45.4293 35.878 45.546 36.3773 45.7793 36.816C46.022 37.2547 46.3487 37.5953 46.7593 37.838C47.1793 38.0713 47.6507 38.188 48.1733 38.188ZM59.5617 30.096V33.946H64.6297V34.842H59.5617V39H58.5257V29.2H65.2457V30.096H59.5617ZM71.0531 38.552C70.8664 38.72 70.6331 38.8507 70.3531 38.944C70.0824 39.028 69.7977 39.07 69.4991 39.07C68.8084 39.07 68.2764 38.8833 67.9031 38.51C67.5297 38.1367 67.3431 37.6093 67.3431 36.928V32.476H66.0271V31.636H67.3431V30.026H68.3371V31.636H70.5771V32.476H68.3371V36.872C68.3371 37.3107 68.4444 37.6467 68.6591 37.88C68.8831 38.104 69.2004 38.216 69.6111 38.216C69.8164 38.216 70.0124 38.1833 70.1991 38.118C70.3951 38.0527 70.5631 37.9593 70.7031 37.838L71.0531 38.552Z" fill="#696969"/>
<g clip-path="url(#clip0_1987_17151)">
<path d="M44.1488 0.146667L28.1473 16.1481C27.8339 16.4616 28.0563 17 28.5002 17H44.5016C44.7772 17 45.0006 16.7766 45.0006 16.501V0.499531C45.0007 0.0562469 44.4627 -0.167208 44.1488 0.146667ZM44.0027 16.002H29.7049L32.2428 13.4641L32.9378 14.1592C33.0353 14.2567 33.163 14.3054 33.2907 14.3054C33.7313 14.3054 33.9588 13.7688 33.6435 13.4535L32.9484 12.7584L34.3718 11.335L35.0669 12.0301C35.1643 12.1276 35.292 12.1763 35.4197 12.1763C35.8603 12.1763 36.0878 11.6397 35.7726 11.3244L35.0775 10.6294L36.5009 9.20596L37.196 9.90104C37.2934 9.99848 37.4211 10.0472 37.5488 10.0472C37.9894 10.0472 38.2169 9.51058 37.9016 9.19531L37.2066 8.50026L38.63 7.07686L39.3251 7.77195C39.4225 7.86939 39.5502 7.91809 39.6779 7.91809C40.1185 7.91809 40.346 7.38149 40.0307 7.06622L39.3357 6.37117L40.7591 4.94777L41.4542 5.64285C41.5516 5.74029 41.6793 5.789 41.807 5.789C42.2476 5.789 42.4751 5.2524 42.1598 4.93713L41.4648 4.24208L44.0026 1.70423V16.002H44.0027Z" fill="#696969"/>
<path d="M40.9212 8.39667L36.3969 12.921C36.0834 13.2344 36.3058 13.7729 36.7497 13.7729H41.274C41.5496 13.7729 41.773 13.5494 41.773 13.2738V8.74953C41.773 8.30625 41.2351 8.08279 40.9212 8.39667ZM40.775 12.7748H37.9544L40.775 9.95423V12.7748Z" fill="#696969"/>
</g>
<defs>
<clipPath id="clip0_1987_17151">
<rect width="17" height="17" fill="white" transform="translate(28)"/>
</clipPath>
</defs>
</svg>
