<svg width="145" height="145" viewBox="0 0 145 145" fill="none" xmlns="http://www.w3.org/2000/svg">
<g filter="url(#filter0_ddd_1987_22282)">
<g filter="url(#filter1_d_1987_22282)">
<circle cx="72.5" cy="62.5" r="22.5" transform="rotate(180 72.5 62.5)" fill="white"/>
<circle cx="72.5" cy="62.5" r="22" transform="rotate(180 72.5 62.5)" stroke="#E6E9EC"/>
</g>
<path d="M68.6665 62.4682L74.0066 67.8083C74.1301 67.9319 74.295 68 74.4708 68C74.6466 68 74.8115 67.9319 74.935 67.8083L75.3283 67.4151C75.5842 67.1589 75.5842 66.7425 75.3283 66.4867L70.844 62.0025L75.3332 57.5133C75.4568 57.3896 75.5249 57.2249 75.5249 57.0492C75.5249 56.8733 75.4568 56.7085 75.3332 56.5848L74.94 56.1917C74.8164 56.0681 74.6516 56 74.4758 56C74.3 56 74.1351 56.0681 74.0116 56.1917L68.6665 61.5366C68.5427 61.6606 68.4747 61.8262 68.4751 62.0022C68.4747 62.1789 68.5427 62.3443 68.6665 62.4682Z" fill="#0D263B"/>
</g>
<defs>
<filter id="filter0_ddd_1987_22282" x="4" y="1" width="137" height="142" filterUnits="userSpaceOnUse" color-interpolation-filters="sRGB">
<feFlood flood-opacity="0" result="BackgroundImageFix"/>
<feColorMatrix in="SourceAlpha" type="matrix" values="0 0 0 0 0 0 0 0 0 0 0 0 0 0 0 0 0 0 127 0" result="hardAlpha"/>
<feOffset dy="8"/>
<feGaussianBlur stdDeviation="7.5"/>
<feColorMatrix type="matrix" values="0 0 0 0 0 0 0 0 0 0 0 0 0 0 0 0 0 0 0.06 0"/>
<feBlend mode="normal" in2="BackgroundImageFix" result="effect1_dropShadow_1987_22282"/>
<feColorMatrix in="SourceAlpha" type="matrix" values="0 0 0 0 0 0 0 0 0 0 0 0 0 0 0 0 0 0 127 0" result="hardAlpha"/>
<feOffset dy="7"/>
<feGaussianBlur stdDeviation="23"/>
<feColorMatrix type="matrix" values="0 0 0 0 0 0 0 0 0 0 0 0 0 0 0 0 0 0 0.06 0"/>
<feBlend mode="normal" in2="effect1_dropShadow_1987_22282" result="effect2_dropShadow_1987_22282"/>
<feColorMatrix in="SourceAlpha" type="matrix" values="0 0 0 0 0 0 0 0 0 0 0 0 0 0 0 0 0 0 127 0" result="hardAlpha"/>
<feOffset dy="20"/>
<feGaussianBlur stdDeviation="19"/>
<feColorMatrix type="matrix" values="0 0 0 0 0 0 0 0 0 0 0 0 0 0 0 0 0 0 0.06 0"/>
<feBlend mode="normal" in2="effect2_dropShadow_1987_22282" result="effect3_dropShadow_1987_22282"/>
<feBlend mode="normal" in="SourceGraphic" in2="effect3_dropShadow_1987_22282" result="shape"/>
</filter>
<filter id="filter1_d_1987_22282" x="0" y="0" width="145" height="145" filterUnits="userSpaceOnUse" color-interpolation-filters="sRGB">
<feFlood flood-opacity="0" result="BackgroundImageFix"/>
<feColorMatrix in="SourceAlpha" type="matrix" values="0 0 0 0 0 0 0 0 0 0 0 0 0 0 0 0 0 0 127 0" result="hardAlpha"/>
<feOffset dy="10"/>
<feGaussianBlur stdDeviation="25"/>
<feColorMatrix type="matrix" values="0 0 0 0 0.0509804 0 0 0 0 0.14902 0 0 0 0 0.231373 0 0 0 0.1 0"/>
<feBlend mode="normal" in2="BackgroundImageFix" result="effect1_dropShadow_1987_22282"/>
<feBlend mode="normal" in="SourceGraphic" in2="effect1_dropShadow_1987_22282" result="shape"/>
</filter>
</defs>
</svg>
